<svg xmlns="http://www.w3.org/2000/svg" width="28" height="21" fill="white" viewBox="0 0 28 21" ><path d="M24.193 0c1.27 0 2.22.301 2.855.904.59.56.905 1.372.947 2.437l.005.25v13.817c0 1.19-.317 2.085-.952 2.688-.589.56-1.452.86-2.588.9l-.267.004H3.807c-1.252 0-2.2-.301-2.843-.904-.597-.56-.916-1.372-.96-2.437L0 17.409V3.591C0 2.402.321 1.507.964.904c.597-.56 1.457-.86 2.58-.9L3.806 0h20.386Zm.435 1.5H3.346c-.598 0-1.055.153-1.371.458-.282.271-.438.66-.47 1.166l-.005.195v14.375c0 .593.158 1.043.475 1.348.281.271.673.422 1.177.452l.194.006h21.282c.597 0 1.059-.153 1.384-.458.29-.271.45-.657.482-1.156l.006-.192V3.319c0-.602-.163-1.056-.488-1.361-.325-.305-.787-.458-1.384-.458ZM11.905 5.559v1.6H7.511v2.533h4.128v1.498H7.511v2.65h4.394v1.599h-6.32v-9.88h6.32Zm3.236 0 4.35 6.572h.065V5.559h1.812v9.88h-1.61L15.391 8.83h-.057v6.609h-1.812v-9.88h1.618Z"></path></svg>